<svg width="341" height="290" viewBox="0 0 341 290" fill="none"
  xmlns="http://www.w3.org/2000/svg">
  <g clip-path="url(#clip0_103_368)">
    <path d="M204.215 65.4867H9.70022C8.02479 65.4848 6.37776 65.9192 4.92141 66.7472C4.57258 66.9451 4.23669 67.165 3.91579 67.4055C2.70066 68.3061 1.71352 69.4786 1.03351 70.8293C0.353498 72.1799 -0.000465226 73.6711 4.58907e-07 75.1831V176.23C0.00228645 178.801 1.02501 181.266 2.84365 183.084C4.6623 184.902 7.12827 185.924 9.70022 185.927H204.215C206.787 185.924 209.253 184.902 211.072 183.084C212.89 181.266 213.913 178.801 213.915 176.23V75.1831C213.913 72.6122 212.89 70.1472 211.072 68.3293C209.253 66.5113 206.787 65.489 204.215 65.4867V65.4867ZM212.894 176.23C212.891 178.53 211.976 180.735 210.349 182.361C208.722 183.988 206.516 184.903 204.215 184.906H9.70022C7.39937 184.903 5.19369 183.988 3.56674 182.361C1.93979 180.735 1.02433 178.53 1.02108 176.23V75.1831C1.02833 73.3496 1.61328 71.565 2.69287 70.0827C3.77245 68.6005 5.29179 67.4959 7.03511 66.9258C7.10665 66.9054 7.17295 66.8799 7.24451 66.8595C8.04198 66.6251 8.869 66.5066 9.70022 66.5074H204.215C206.516 66.5107 208.722 67.4257 210.349 69.0521C211.976 70.6784 212.891 72.8832 212.894 75.1831V176.23Z" fill="#F2F2F2"/>
    <path d="M274.27 197.293C274.942 196.855 275.51 196.276 275.933 195.595C276.356 194.915 276.625 194.149 276.721 193.354C276.817 192.558 276.736 191.751 276.486 190.989C276.236 190.228 275.822 189.53 275.273 188.946L278.322 152.605L269.589 153.565L267.197 188.936C266.276 189.923 265.749 191.213 265.717 192.562C265.684 193.911 266.148 195.225 267.02 196.255C267.892 197.285 269.112 197.96 270.448 198.151C271.784 198.342 273.144 198.037 274.27 197.293V197.293Z" fill="#FFB8B8"/>
    <path d="M243.188 283.974L236.929 283.974L233.951 259.841L243.189 259.842L243.188 283.974Z" fill="#FFB8B8"/>
    <path d="M232.458 282.186H244.529V289.784H224.858C224.858 288.786 225.054 287.798 225.436 286.876C225.818 285.954 226.378 285.117 227.084 284.411C227.79 283.706 228.628 283.146 229.55 282.765C230.472 282.383 231.46 282.186 232.458 282.186Z" fill="#00FFA3"/>
    <path d="M287.605 283.974L281.346 283.974L278.368 259.841L287.606 259.842L287.605 283.974Z" fill="#FFB8B8"/>
    <path d="M276.875 282.186H288.946V289.784H269.275C269.275 287.769 270.076 285.836 271.501 284.411C272.926 282.987 274.859 282.186 276.875 282.186V282.186Z" fill="#00FFA3"/>
    <path d="M243.294 269.028C243.226 269.028 243.158 269.025 243.089 269.019L234.23 268.31C233.879 268.282 233.537 268.182 233.227 268.015C232.916 267.849 232.643 267.619 232.426 267.342C232.208 267.065 232.05 266.746 231.962 266.404C231.874 266.063 231.858 265.707 231.914 265.36L245.345 182.317L246.245 170.604C246.285 170.057 246.501 169.537 246.861 169.123C247.222 168.709 247.707 168.423 248.244 168.307L261.754 165.354C262.25 165.243 262.769 165.284 263.242 165.471C263.715 165.659 264.121 165.984 264.406 166.405L267.7 171.218C268.994 173.089 270.399 174.88 271.91 176.581C274.247 179.242 278.221 185.15 278.577 194.818C278.673 197.994 279.003 201.159 279.564 204.287L290.441 262.854C290.496 263.197 290.48 263.548 290.394 263.885C290.309 264.222 290.155 264.538 289.943 264.814C289.731 265.089 289.464 265.318 289.16 265.487C288.856 265.656 288.52 265.761 288.174 265.796L279.777 266.432C279.176 266.491 278.574 266.334 278.078 265.99C277.582 265.646 277.224 265.137 277.07 264.554L262.174 209.181C262.145 209.073 262.081 208.977 261.991 208.909C261.902 208.84 261.793 208.803 261.68 208.804C261.568 208.804 261.459 208.841 261.37 208.91C261.28 208.978 261.217 209.074 261.188 209.183L245.76 267.132C245.614 267.675 245.294 268.155 244.848 268.498C244.403 268.841 243.856 269.027 243.294 269.028Z" fill="#00FFA3"/>
    <path d="M266.852 127.719C273.777 127.719 279.391 122.108 279.391 115.185C279.391 108.262 273.777 102.651 266.852 102.651C259.926 102.651 254.312 108.262 254.312 115.185C254.312 122.108 259.926 127.719 266.852 127.719Z" fill="#FFB8B8"/>
    <path d="M245.598 172.489L245.338 154.589C244.383 143.141 249.455 137.13 253.879 134.106C255.019 133.337 256.305 132.806 257.656 132.548C259.008 132.289 260.398 132.307 261.743 132.602L271.611 134.734C272.985 135.034 274.284 135.608 275.43 136.424C276.576 137.239 277.544 138.279 278.276 139.479C278.977 140.611 279.436 141.875 279.627 143.193C279.818 144.511 279.736 145.853 279.385 147.138C278.7 149.542 277.179 151.623 275.097 153.008C266.617 158.991 266.02 169.042 266.015 169.143L266.005 169.351L245.598 172.489Z" fill="#F2F2F2"/>
    <path d="M276.481 159.179H267.802C267.193 159.178 266.609 158.936 266.179 158.505C265.748 158.075 265.506 157.491 265.505 156.882V141.827C265.505 140.068 266.204 138.38 267.449 137.136C268.693 135.892 270.382 135.193 272.142 135.193C273.902 135.193 275.59 135.892 276.835 137.136C278.08 138.38 278.779 140.068 278.779 141.827V156.882C278.778 157.491 278.536 158.075 278.105 158.505C277.675 158.936 277.091 159.178 276.481 159.179V159.179Z" fill="#F2F2F2"/>
    <path d="M218.21 162.023C217.698 162.633 217.064 163.128 216.347 163.475C215.631 163.822 214.849 164.013 214.053 164.036C213.257 164.059 212.466 163.913 211.731 163.608C210.995 163.303 210.333 162.846 209.787 162.266C204.842 157.082 212.926 149.297 217.89 154.493C218.065 154.672 218.228 154.863 218.376 155.064L243.407 154.442L246.395 148.98L255.577 152.544C253.814 155.277 251.79 166.002 247.179 165.48C246.575 165.496 218.828 162.067 218.21 162.023Z" fill="#FFB8B8"/>
    <path d="M251.694 157.89L244.697 152.757C244.206 152.396 243.879 151.855 243.787 151.254C243.694 150.652 243.844 150.038 244.204 149.547L253.115 137.409C253.631 136.707 254.28 136.113 255.025 135.661C255.77 135.21 256.597 134.909 257.459 134.777C258.32 134.645 259.199 134.684 260.046 134.891C260.892 135.098 261.69 135.471 262.392 135.986C263.095 136.502 263.689 137.15 264.141 137.895C264.593 138.64 264.894 139.467 265.026 140.328C265.158 141.189 265.119 142.068 264.912 142.914C264.704 143.76 264.332 144.558 263.816 145.26L254.906 157.397C254.545 157.888 254.004 158.215 253.402 158.307C252.8 158.4 252.186 158.25 251.694 157.89V157.89Z" fill="#F2F2F2"/>
    <path d="M269.363 121.7C269.768 120.856 269.908 119.91 269.766 118.985C269.624 118.06 269.206 117.199 268.567 116.516C266.208 114.138 262.522 115.724 259.334 115.491C254.024 115.103 250.407 108.773 251.992 103.692C253.578 98.6113 259.212 95.4584 264.526 95.7927C269.84 96.127 274.651 99.4129 277.854 103.665C280.046 100.138 285.432 99.7265 288.908 102C292.384 104.273 294.182 108.428 294.926 112.513C295.669 116.599 295.548 120.797 296.174 124.902C297.691 134.852 304.115 144.221 313.411 148.089C322.707 151.957 334.602 149.471 340.684 141.45C341.866 151.171 339.792 161.01 334.785 169.427C329.778 177.844 322.121 184.365 313.012 187.969C307.974 189.962 302.412 191.02 297.108 189.912C288.547 188.124 281.887 180.805 278.985 172.557C276.083 164.309 276.43 155.259 277.84 146.63C278.708 141.316 279.67 135.021 275.792 131.283C274.703 130.377 273.422 129.732 272.047 129.395C271.317 129.176 270.648 128.794 270.089 128.277C269.529 127.76 269.096 127.122 268.821 126.412C268.545 125.702 268.436 124.939 268.501 124.18C268.565 123.422 268.802 122.688 269.194 122.035C269.257 121.924 269.313 121.812 269.363 121.7Z" fill="#00FFA3"/>
    <path d="M314.379 290H197.976C197.841 290 197.711 289.946 197.615 289.85C197.519 289.755 197.466 289.625 197.466 289.49C197.466 289.354 197.519 289.224 197.615 289.129C197.711 289.033 197.841 288.979 197.976 288.979H314.379C314.514 288.979 314.644 289.033 314.74 289.129C314.836 289.224 314.889 289.354 314.889 289.49C314.889 289.625 314.836 289.755 314.74 289.85C314.644 289.946 314.514 290 314.379 290Z" fill="#00FFA3"/>
    <path d="M106.745 125.664C105.97 125.663 105.208 125.467 104.53 125.093L2.91081 69.1838C2.7922 69.1185 2.70438 69.0089 2.66668 68.8789C2.62898 68.7489 2.64447 68.6093 2.70976 68.4907C2.77505 68.3721 2.88479 68.2843 3.01482 68.2467C3.14486 68.209 3.28454 68.2245 3.40315 68.2897L105.022 124.199C105.541 124.485 106.122 124.637 106.714 124.642C107.306 124.648 107.89 124.505 108.413 124.229L211.705 69.7604C211.764 69.729 211.829 69.7096 211.896 69.7032C211.963 69.6969 212.03 69.7038 212.094 69.7236C212.158 69.7434 212.218 69.7756 212.27 69.8184C212.321 69.8612 212.364 69.9138 212.395 69.9731C212.427 70.0325 212.446 70.0974 212.452 70.1642C212.458 70.231 212.451 70.2984 212.431 70.3625C212.412 70.4265 212.379 70.4861 212.336 70.5376C212.293 70.5892 212.241 70.6318 212.181 70.663L108.889 125.131C108.229 125.481 107.493 125.663 106.745 125.664Z" fill="#F2F2F2"/>
    <path d="M32.4531 160.41H18.158C17.0748 160.41 16.036 159.979 15.27 159.214C14.5041 158.448 14.0737 157.41 14.0737 156.327C14.0737 155.244 14.5041 154.206 15.27 153.44C16.036 152.674 17.0748 152.244 18.158 152.244H32.4531C33.5363 152.244 34.5752 152.674 35.3411 153.44C36.1071 154.206 36.5374 155.244 36.5374 156.327C36.5374 157.41 36.1071 158.448 35.3411 159.214C34.5752 159.979 33.5363 160.41 32.4531 160.41Z" fill="#00FFA3"/>
    <path d="M49.3009 174.189H18.158C17.0748 174.189 16.036 173.759 15.27 172.993C14.5041 172.227 14.0737 171.189 14.0737 170.106C14.0737 169.023 14.5041 167.985 15.27 167.219C16.036 166.453 17.0748 166.023 18.158 166.023H49.3009C50.3841 166.023 51.4229 166.453 52.1889 167.219C52.9549 167.985 53.3852 169.023 53.3852 170.106C53.3852 171.189 52.9549 172.227 52.1889 172.993C51.4229 173.759 50.3841 174.189 49.3009 174.189Z" fill="#00FFA3"/>
    <path d="M106.704 142.037C115.727 142.037 123.042 134.726 123.042 125.707C123.042 116.687 115.727 109.376 106.704 109.376C97.6816 109.376 90.3672 116.687 90.3672 125.707C90.3672 134.726 97.6816 142.037 106.704 142.037Z" fill="#00FFA3"/>
  </g>
  <defs>
    <clipPath id="clip0_103_368">
      <rect width="341" height="290" fill="white"/>
    </clipPath>
  </defs>
</svg>
